# xmcd
#
# Track frame offsets:
#	150
#	17669
#	36938
#	60085
#	83322
#	109623
#	132101
#	154447
#	178633
#	201465
#	220153
#	243586
#
# Disc length: 3440 seconds
#
# Revision: 0
# Processed by: cddbd v1.5PL3 Copyright (c) Steve Scherf et al.
# Submitted via: dBpowerAMP V4.0
#
DISCID=990d6e0c
DTITLE=Cool Whipp - It's Cool Whip Time
DYEAR=2004
DGENRE=Rap
TTITLE0=Rock'em Sock'em
TTITLE1=Blood On It
TTITLE2=Get Crunk 
TTITLE3=G.U
TTITLE4=Hold Ya Nutz
TTITLE5=I'm Ah Ball
TTITLE6=I Wanna Fuck Something
TTITLE7=It's Cool Whipp Time
TTITLE8=Death Shoes On
TTITLE9=You Think You Bad
TTITLE10=Painful Death
TTITLE11=Talk Shit
EXTD=This Album Is Garbage As Fuck
EXTT0=
EXTT1=
EXTT2=
EXTT3=
EXTT4=
EXTT5=
EXTT6=
EXTT7=
EXTT8=
EXTT9=
EXTT10=
EXTT11=
PLAYORDER=
